<?xml version="1.0" standalone="no"?>
<!DOCTYPE svg PUBLIC "-//W3C//DTD SVG 20010904//EN"
 "http://www.w3.org/TR/2001/REC-SVG-20010904/DTD/svg10.dtd">
<svg version="1.0" xmlns="http://www.w3.org/2000/svg"
 width="283.000000pt" height="283.000000pt" viewBox="0 0 283.000000 283.000000"
 preserveAspectRatio="xMidYMid meet">
<metadata>
Created by potrace 1.11, written by Peter Selinger 2001-2013
</metadata>
<g transform="translate(0.000000,283.000000) scale(0.100000,-0.100000)"
fill="#000000" stroke="none">
<path d="M2085 2731 c-84 -29 -124 -52 -179 -102 -158 -145 -188 -395 -69
-577 183 -276 599 -264 763 23 138 242 28 547 -234 648 -71 27 -214 31 -281 8z"/>
<path d="M513 2138 c-228 -46 -407 -200 -481 -413 -29 -84 -37 -220 -17 -310
52 -242 267 -438 527 -481 87 -15 399 -8 468 9 180 47 337 168 419 326 74 142
79 179 80 556 l1 330 -457 0 c-387 0 -471 -3 -540 -17z m-141 -332 c4 -6 8
-42 8 -80 l0 -69 23 20 c51 48 144 30 169 -33 18 -45 17 -226 -1 -248 -15 -18
-29 -20 -50 -7 -11 7 -15 35 -16 116 -2 116 -11 138 -59 138 -48 0 -60 -27
-66 -139 -5 -105 -9 -116 -37 -120 -40 -6 -43 11 -43 217 0 164 3 200 15 213
16 15 44 11 57 -8z m524 -128 c48 -32 74 -125 42 -144 -7 -5 -55 -8 -107 -9
-64 0 -96 -4 -99 -13 -6 -19 35 -69 62 -74 28 -6 74 11 99 36 19 19 57 13 57
-9 0 -18 -58 -75 -78 -76 -144 -13 -208 26 -219 134 -12 112 59 190 164 181
26 -2 61 -14 79 -26z m148 10 c8 -13 29 -66 47 -118 17 -52 33 -96 34 -98 1
-1 17 39 35 90 52 147 60 158 98 135 20 -13 14 -38 -44 -188 -73 -187 -79
-202 -102 -222 -42 -38 -142 -29 -142 12 0 21 22 33 44 25 25 -9 55 15 61 49
5 24 -6 61 -45 156 -55 137 -58 155 -32 170 25 15 30 14 46 -11z"/>
<path d="M751 1621 c-33 -46 -28 -51 49 -51 63 0 70 2 70 20 0 29 -36 60 -69
60 -21 0 -36 -8 -50 -29z"/>
<path d="M2060 1731 c-221 -59 -392 -232 -450 -453 -17 -67 -18 -120 -19 -634
l-2 -560 621 0 620 0 0 561 c0 620 -1 628 -65 760 -72 149 -202 261 -365 315
-89 30 -250 35 -340 11z"/>
</g>
</svg>
